<svg xmlns="http://www.w3.org/2000/svg" viewBox="0 0 1920 1080" preserveAspectRatio="none">
  <defs>
    <linearGradient id="backdrop-water" x1="0" y1="0" x2="0" y2="1">
      <stop offset="0" stop-color="#1a6f96"/>
      <stop offset="0.52" stop-color="#124f73"/>
      <stop offset="1" stop-color="#0b3d5c"/>
    </linearGradient>
  </defs>
  <rect x="0" y="0" width="1920" height="1080" fill="url(#backdrop-water)"/>
  <path d="M0 620 C 220 596, 420 640, 640 618 C 880 594, 1080 638, 1320 616
           C 1540 596, 1740 636, 1920 614 L1920 700 C 1740 722, 1540 682, 1320 704
           C 1080 726, 880 682, 640 706 C 420 728, 220 684, 0 708 Z"
        fill="#2b2b3a" opacity="0.08"/>
  <!-- Rocks sit under the sand, so their bases are buried rather than drawn. -->
  <path d="M300 888 C 330 836, 384 812, 434 830 C 470 844, 488 868, 492 890 L492 980 L300 980 Z" fill="#134260"/>
  <path d="M760 890 C 786 848, 834 830, 878 844 C 910 854, 928 874, 932 892 L932 980 L760 980 Z" fill="#124261"/>
  <path d="M1650 886 C 1684 828, 1746 806, 1804 826 C 1846 840, 1868 866, 1872 888 L1872 980 L1650 980 Z" fill="#134260"/>
  <path d="M120 884 C 150 812, 216 772, 288 790 C 344 804, 372 848, 380 886 L380 980 L120 980 Z" fill="#193c56"/>
  <path d="M1420 878 C 1452 796, 1530 752, 1612 776 C 1676 794, 1708 840, 1716 882 L1716 980 L1420 980 Z" fill="#193c56"/>
  <path d="M0 880 C 180 838, 330 900, 520 872 C 700 846, 830 892, 1010 874
           C 1200 854, 1350 898, 1540 876 C 1700 858, 1820 890, 1920 872
           L1920 1080 L0 1080 Z" fill="#e6d3a3"/>
  <path d="M0 880 C 180 838, 330 900, 520 872 C 700 846, 830 892, 1010 874
           C 1200 854, 1350 898, 1540 876 C 1700 858, 1820 890, 1920 872
           L1920 918 C 1800 936, 1660 906, 1520 922 C 1340 942, 1180 900, 1000 920
           C 820 940, 660 898, 480 918 C 300 938, 150 896, 0 926 Z"
        fill="#2b2b3a" opacity="0.06"/>
</svg>
