<svg xmlns="http://www.w3.org/2000/svg" viewBox="0 0 400 300" preserveAspectRatio="none">
  <circle cx="130.2" cy="46.7" r="0.68" fill="#f4f1de" opacity="0.33"/>
  <circle cx="214.2" cy="110.2" r="0.38" fill="#f4f1de" opacity="0.50"/>
  <circle cx="16.8" cy="130.4" r="0.38" fill="#f4f1de" opacity="0.34"/>
  <circle cx="170.1" cy="246.7" r="0.41" fill="#f4f1de" opacity="0.39"/>
  <circle cx="250.5" cy="282.5" r="0.64" fill="#f4f1de" opacity="0.46"/>
  <circle cx="388.6" cy="15.8" r="0.78" fill="#f4f1de" opacity="0.42"/>
  <circle cx="59.1" cy="36.9" r="0.50" fill="#f4f1de" opacity="0.63"/>
  <circle cx="73.6" cy="174.2" r="0.67" fill="#f4f1de" opacity="0.45"/>
  <circle cx="218.9" cy="20.6" r="0.38" fill="#f4f1de" opacity="0.38"/>
  <circle cx="271.4" cy="128.6" r="0.51" fill="#f4f1de" opacity="0.53"/>
  <circle cx="181.5" cy="90.7" r="0.75" fill="#f4f1de" opacity="0.58"/>
  <circle cx="98.7" cy="172.0" r="0.61" fill="#f4f1de" opacity="0.65"/>
  <circle cx="290.9" cy="87.2" r="0.84" fill="#f4f1de" opacity="0.35"/>
  <circle cx="167.6" cy="226.1" r="0.43" fill="#f4f1de" opacity="0.50"/>
  <circle cx="17.5" cy="199.8" r="0.73" fill="#f4f1de" opacity="0.53"/>
  <circle cx="348.7" cy="94.9" r="0.70" fill="#f4f1de" opacity="0.54"/>
  <circle cx="231.6" cy="137.0" r="0.77" fill="#f4f1de" opacity="0.68"/>
  <circle cx="189.7" cy="198.6" r="0.38" fill="#f4f1de" opacity="0.58"/>
  <circle cx="258.3" cy="296.0" r="0.76" fill="#f4f1de" opacity="0.41"/>
  <circle cx="154.8" cy="199.9" r="0.36" fill="#f4f1de" opacity="0.48"/>
  <circle cx="68.5" cy="36.7" r="0.38" fill="#f4f1de" opacity="0.61"/>
  <circle cx="53.2" cy="75.3" r="0.55" fill="#f4f1de" opacity="0.65"/>
  <circle cx="33.9" cy="135.0" r="0.62" fill="#f4f1de" opacity="0.65"/>
  <circle cx="326.4" cy="257.7" r="0.49" fill="#f4f1de" opacity="0.47"/>
  <circle cx="144.1" cy="263.7" r="0.83" fill="#f4f1de" opacity="0.36"/>
  <circle cx="71.8" cy="70.7" r="0.47" fill="#f4f1de" opacity="0.49"/>
  <circle cx="235.3" cy="79.8" r="0.35" fill="#f4f1de" opacity="0.47"/>
  <circle cx="148.2" cy="169.6" r="0.83" fill="#f4f1de" opacity="0.58"/>
  <circle cx="206.1" cy="184.8" r="0.69" fill="#f4f1de" opacity="0.32"/>
  <circle cx="358.2" cy="232.9" r="0.79" fill="#f4f1de" opacity="0.62"/>
  <circle cx="157.4" cy="120.1" r="0.40" fill="#f4f1de" opacity="0.55"/>
  <circle cx="26.7" cy="21.9" r="0.45" fill="#f4f1de" opacity="0.36"/>
  <circle cx="136.7" cy="17.6" r="0.35" fill="#f4f1de" opacity="0.36"/>
  <circle cx="42.2" cy="109.6" r="0.36" fill="#f4f1de" opacity="0.65"/>
  <circle cx="245.2" cy="46.0" r="0.48" fill="#f4f1de" opacity="0.44"/>
  <circle cx="146.2" cy="38.4" r="0.77" fill="#f4f1de" opacity="0.70"/>
  <circle cx="186.5" cy="145.2" r="0.39" fill="#f4f1de" opacity="0.34"/>
  <circle cx="137.7" cy="80.4" r="0.76" fill="#f4f1de" opacity="0.36"/>
  <circle cx="11.1" cy="283.5" r="0.61" fill="#f4f1de" opacity="0.36"/>
  <circle cx="217.1" cy="10.0" r="0.61" fill="#f4f1de" opacity="0.69"/>
  <circle cx="343.9" cy="208.1" r="0.48" fill="#f4f1de" opacity="0.45"/>
  <circle cx="68.1" cy="230.5" r="0.62" fill="#f4f1de" opacity="0.61"/>
  <circle cx="132.5" cy="68.0" r="0.76" fill="#f4f1de" opacity="0.69"/>
  <circle cx="339.6" cy="240.6" r="0.76" fill="#f4f1de" opacity="0.60"/>
  <circle cx="91.8" cy="155.2" r="0.53" fill="#f4f1de" opacity="0.31"/>
  <circle cx="13.1" cy="84.7" r="0.48" fill="#f4f1de" opacity="0.58"/>
  <circle cx="380.8" cy="134.4" r="0.82" fill="#f4f1de" opacity="0.70"/>
  <circle cx="380.2" cy="109.9" r="0.46" fill="#f4f1de" opacity="0.39"/>
  <circle cx="79.9" cy="62.5" r="0.66" fill="#f4f1de" opacity="0.66"/>
  <circle cx="334.8" cy="143.9" r="0.68" fill="#f4f1de" opacity="0.62"/>
  <circle cx="35.6" cy="197.5" r="0.80" fill="#f4f1de" opacity="0.61"/>
  <circle cx="299.1" cy="143.5" r="0.44" fill="#f4f1de" opacity="0.62"/>
  <circle cx="133.7" cy="239.0" r="0.84" fill="#f4f1de" opacity="0.46"/>
  <circle cx="160.9" cy="282.3" r="0.71" fill="#f4f1de" opacity="0.37"/>
  <circle cx="52.3" cy="46.7" r="0.80" fill="#f4f1de" opacity="0.62"/>
  <circle cx="59.9" cy="246.6" r="0.84" fill="#f4f1de" opacity="0.56"/>
  <circle cx="140.8" cy="164.4" r="0.42" fill="#f4f1de" opacity="0.31"/>
  <circle cx="386.5" cy="194.3" r="0.61" fill="#f4f1de" opacity="0.67"/>
  <circle cx="173.8" cy="260.0" r="0.76" fill="#f4f1de" opacity="0.38"/>
  <circle cx="101.7" cy="88.7" r="0.47" fill="#f4f1de" opacity="0.53"/>
  <circle cx="104.7" cy="126.0" r="0.42" fill="#f4f1de" opacity="0.66"/>
  <circle cx="142.1" cy="137.6" r="0.64" fill="#f4f1de" opacity="0.66"/>
  <circle cx="168.6" cy="273.6" r="0.60" fill="#f4f1de" opacity="0.51"/>
  <circle cx="209.3" cy="7.5" r="0.57" fill="#f4f1de" opacity="0.37"/>
  <circle cx="3.6" cy="238.6" r="0.44" fill="#f4f1de" opacity="0.49"/>
  <circle cx="289.2" cy="166.7" r="0.51" fill="#f4f1de" opacity="0.51"/>
  <circle cx="222.0" cy="234.1" r="0.40" fill="#f4f1de" opacity="0.52"/>
  <circle cx="100.4" cy="84.0" r="0.74" fill="#f4f1de" opacity="0.50"/>
  <circle cx="224.4" cy="227.0" r="0.81" fill="#f4f1de" opacity="0.48"/>
  <circle cx="244.6" cy="151.6" r="0.61" fill="#f4f1de" opacity="0.58"/>
  <circle cx="181.1" cy="159.9" r="0.59" fill="#f4f1de" opacity="0.68"/>
  <circle cx="278.9" cy="261.5" r="0.82" fill="#f4f1de" opacity="0.40"/>
  <circle cx="223.6" cy="281.2" r="0.77" fill="#f4f1de" opacity="0.35"/>
  <circle cx="50.2" cy="132.9" r="0.39" fill="#f4f1de" opacity="0.40"/>
  <circle cx="31.0" cy="200.2" r="0.74" fill="#f4f1de" opacity="0.66"/>
  <circle cx="63.2" cy="214.0" r="0.68" fill="#f4f1de" opacity="0.36"/>
  <circle cx="351.6" cy="288.4" r="0.46" fill="#f4f1de" opacity="0.68"/>
  <circle cx="159.7" cy="146.2" r="0.84" fill="#f4f1de" opacity="0.63"/>
  <circle cx="65.9" cy="129.7" r="0.61" fill="#f4f1de" opacity="0.44"/>
  <circle cx="79.5" cy="96.3" r="0.71" fill="#f4f1de" opacity="0.31"/>
  <circle cx="221.4" cy="132.4" r="0.36" fill="#f4f1de" opacity="0.43"/>
  <circle cx="249.1" cy="153.6" r="0.38" fill="#f4f1de" opacity="0.69"/>
  <circle cx="314.2" cy="289.6" r="0.40" fill="#f4f1de" opacity="0.41"/>
  <circle cx="17.7" cy="232.6" r="0.49" fill="#f4f1de" opacity="0.35"/>
  <circle cx="169.2" cy="271.8" r="0.76" fill="#f4f1de" opacity="0.40"/>
  <circle cx="61.1" cy="274.1" r="0.64" fill="#f4f1de" opacity="0.58"/>
  <circle cx="37.4" cy="19.0" r="0.69" fill="#f4f1de" opacity="0.47"/>
  <circle cx="30.7" cy="279.8" r="0.67" fill="#f4f1de" opacity="0.62"/>
  <circle cx="35.2" cy="255.4" r="0.38" fill="#f4f1de" opacity="0.65"/>
  <circle cx="181.7" cy="102.4" r="0.63" fill="#f4f1de" opacity="0.67"/>
  <circle cx="108.1" cy="40.3" r="0.61" fill="#f4f1de" opacity="0.40"/>
  <circle cx="45.3" cy="49.8" r="0.38" fill="#f4f1de" opacity="0.38"/>
  <circle cx="125.5" cy="92.3" r="0.73" fill="#f4f1de" opacity="0.42"/>
  <circle cx="200.0" cy="54.7" r="0.52" fill="#f4f1de" opacity="0.31"/>
  <circle cx="101.2" cy="6.5" r="0.72" fill="#f4f1de" opacity="0.52"/>
  <circle cx="77.0" cy="142.5" r="0.82" fill="#f4f1de" opacity="0.34"/>
  <circle cx="326.3" cy="129.9" r="0.60" fill="#f4f1de" opacity="0.63"/>
  <circle cx="157.7" cy="152.0" r="0.69" fill="#f4f1de" opacity="0.69"/>
  <circle cx="137.7" cy="248.4" r="0.70" fill="#f4f1de" opacity="0.55"/>
  <circle cx="162.3" cy="104.9" r="0.38" fill="#f4f1de" opacity="0.35"/>
  <circle cx="30.0" cy="221.3" r="0.48" fill="#f4f1de" opacity="0.37"/>
  <circle cx="35.5" cy="251.0" r="0.79" fill="#f4f1de" opacity="0.57"/>
  <circle cx="113.6" cy="73.7" r="0.50" fill="#f4f1de" opacity="0.48"/>
  <circle cx="64.4" cy="134.0" r="0.48" fill="#f4f1de" opacity="0.68"/>
  <circle cx="387.2" cy="163.9" r="0.47" fill="#f4f1de" opacity="0.69"/>
  <circle cx="124.6" cy="107.5" r="0.35" fill="#f4f1de" opacity="0.45"/>
  <circle cx="190.0" cy="150.8" r="0.45" fill="#f4f1de" opacity="0.50"/>
  <circle cx="4.0" cy="80.2" r="0.39" fill="#f4f1de" opacity="0.46"/>
  <circle cx="18.5" cy="8.7" r="0.50" fill="#f4f1de" opacity="0.39"/>
  <circle cx="233.9" cy="158.6" r="0.73" fill="#f4f1de" opacity="0.56"/>
  <circle cx="285.5" cy="262.2" r="0.54" fill="#f4f1de" opacity="0.43"/>
  <circle cx="392.0" cy="46.2" r="0.71" fill="#f4f1de" opacity="0.56"/>
  <circle cx="19.3" cy="249.2" r="0.80" fill="#f4f1de" opacity="0.55"/>
  <circle cx="292.6" cy="242.4" r="0.42" fill="#f4f1de" opacity="0.51"/>
  <circle cx="201.7" cy="249.1" r="0.75" fill="#f4f1de" opacity="0.63"/>
  <circle cx="233.3" cy="266.3" r="0.69" fill="#f4f1de" opacity="0.58"/>
  <circle cx="93.1" cy="11.2" r="0.42" fill="#f4f1de" opacity="0.44"/>
  <circle cx="43.5" cy="249.4" r="0.63" fill="#f4f1de" opacity="0.55"/>
  <circle cx="250.0" cy="203.5" r="0.59" fill="#f4f1de" opacity="0.30"/>
  <circle cx="317.9" cy="223.5" r="0.60" fill="#f4f1de" opacity="0.51"/>
</svg>
