<svg xmlns="http://www.w3.org/2000/svg" viewBox="20 29.5 132 70.5">
  <path d="M52 78 L52 96 C52 98.5 53.5 100 56 100 L63 100 C65.5 100 66.5 98.5 66 96 L65 76 Z" fill="#c98f5c"/>
  <path d="M110 70 L110 96 C110 98.5 111.5 100 114 100 L121 100 C123.5 100 124.5 98.5 124 96 L123 70 Z" fill="#c98f5c"/>
  <path d="M52 78 L52 96 C52 98.5 53.5 100 56 100 L63 100 C65.5 100 66.5 98.5 66 96 L65 76 Z M110 70 L110 96 C110 98.5 111.5 100 114 100 L121 100 C123.5 100 124.5 98.5 124 96 L123 70 Z" fill="#2b2b3a" opacity="0.28"/>
  <g class="part-ears" style="transform-box: fill-box; transform-origin: 50% 100%">
    <circle cx="113" cy="34.5" r="5" fill="#c98f5c"/>
    <circle cx="113" cy="34.5" r="5" fill="#7a5a44" opacity="0.6"/>
    <circle cx="113.5" cy="35" r="2.5" fill="#5a3f2e" opacity="0.6"/>
  </g>
  <path d="M20 64 C 20 44, 40 36, 70 36 C 98 36, 120 42, 120 62 C 120 80, 104 88, 70 88 C 38 88, 20 82, 20 64 Z" fill="#c98f5c"/>
  <path d="M20.8 57.5C25 42 43.5 36 70 36C98 36 120 42 120 62C108 53 92 50 70 50C46 50 30 52 20.8 57.5Z" fill="#7a5a44" opacity="0.45"/>
  <path d="M20.8 70C24.5 83.5 42 88 70 88C104 88 120 80 120 62C112 76 96 81 70 81C44 81 30 77 20.8 70Z" fill="#2b2b3a" opacity="0.15"/>
  <path d="M26 72 C 30 64, 46 64, 52 72 C 54 76, 54 80, 53 84 L 54 96 C 54.5 98.5, 53 100, 50.5 100 L 41 100 C 38.5 100, 37 98.5, 37 96 L 36.5 86 C 30 83, 25 78, 26 72 Z" fill="#c98f5c"/>
  <path d="M93 74 C 97 69, 108 69, 112 75 L 114 96 C 114.5 98.5, 113 100, 110.5 100 L 102 100 C 99.5 100, 98 98.5, 98 96 L 97.5 84 C 94 82, 92 78, 93 74 Z" fill="#c98f5c"/>
  <path d="M104 52 C 104 39, 112 33, 124 33 L 139 34 C 147 35, 151 40, 151.5 47 L 152 65 C 152 71.5, 148 76, 141 76 L 125 76 C 112 75, 104 65, 104 52 Z" fill="#c98f5c"/>
  <path d="M104 52 C 104 39, 112 33, 124 33 L 139 34 C 147 35, 151 40, 151.5 47 C 143 42, 134 41, 124 41 C 114 41, 107 45, 104 52 Z" fill="#7a5a44" opacity="0.45"/>
  <path d="M107 64 C 112 72, 118 75.5, 125 76 L 141 76 C 147 76, 151 72.5, 152 67 C 144 71, 132 71, 124 70 C 117 69, 111 67, 107 64 Z" fill="#2b2b3a" opacity="0.15"/>
  <path d="M145 44 C 148 42.5, 151 43.5, 151.5 47 L 151.75 52.5 C 151 54, 150 54.5, 148 54.5 C 145 54.5, 143 52.5, 143 49 C 143 47, 143.5 45.5, 145 44 Z" fill="#5a3f2e"/>
  <circle cx="128" cy="47" r="3.8" fill="#2b2b3a"/>
  <circle cx="126.6" cy="45.6" r="1.1" fill="#ffffff"/>
  <path d="M123.5 44.5 C 125 42.5, 131 42.5, 132.5 44.5 C 132.5 43, 130.5 41.5, 128 41.5 C 125.5 41.5, 123.5 43, 123.5 44.5 Z" fill="#7a5a44"/>
  <ellipse cx="131" cy="59" rx="5" ry="3" fill="#ff7a8a" opacity="0.55"/>
  <path d="M142 65 C 145 67.5, 149 67.5, 151.5 65 C 149 66.3, 145 66.3, 142 65 Z" fill="#2b2b3a" opacity="0.5"/>
</svg>
