<svg xmlns="http://www.w3.org/2000/svg" viewBox="0 0 1920 1080" preserveAspectRatio="none">
  <defs>
    <linearGradient id="jungle-backdrop-sky" x1="0" y1="0" x2="0" y2="700" gradientUnits="userSpaceOnUse">
      <stop offset="0" stop-color="#e4f0d2"/>
      <stop offset="1" stop-color="#9ccfae"/>
    </linearGradient>
  </defs>
  <rect x="0" y="0" width="1920" height="1080" fill="url(#jungle-backdrop-sky)"/>
  <ellipse cx="1180" cy="170" rx="300" ry="190" fill="#fbf7dc" opacity="0.55"/>
  <ellipse cx="1180" cy="170" rx="170" ry="110" fill="#fffbe6" opacity="0.6"/>
  <!-- Far forest, fading into the haze. -->
  <path d="M -40 1100 L -40 430 C -40 371.3, 20 371.3, 20 426.2 C 20 371.3, 95 371.3, 95 418.2 C 95 379.1, 153.3 379.1, 153.3 423.5 C 153.3 378.9, 239.4 378.9, 239.4 419.2 C 239.4 363.7, 303.3 363.7, 303.3 429.5 C 303.3 371.9, 358.8 371.9, 358.8 424.3 C 358.8 396.4, 422.2 396.4, 422.2 426.7 C 422.2 384.5, 494.8 384.5, 494.8 426.5 C 494.8 388.1, 558.3 388.1, 558.3 429.7 C 558.3 362.4, 647.6 362.4, 647.6 427.2 C 647.6 369.1, 743.3 369.1, 743.3 425 C 743.3 353.7, 827.7 353.7, 827.7 423.7 C 827.7 370.8, 916.6 370.8, 916.6 421.2 C 916.6 360.5, 1007.7 360.5, 1007.7 421.2 C 1007.7 379.1, 1063.5 379.1, 1063.5 423.8 C 1063.5 375.6, 1125.1 375.6, 1125.1 419.9 C 1125.1 378.4, 1195.1 378.4, 1195.1 418.3 C 1195.1 376.4, 1271.2 376.4, 1271.2 429.6 C 1271.2 368.5, 1327.4 368.5, 1327.4 421.1 C 1327.4 381.7, 1398.2 381.7, 1398.2 415.3 C 1398.2 357.6, 1484.6 357.6, 1484.6 426.5 C 1484.6 366, 1560.4 366, 1560.4 423.1 C 1560.4 365.8, 1626 365.8, 1626 429.9 C 1626 352, 1713 352, 1713 418.9 C 1713 366.1, 1801.1 366.1, 1801.1 423.6 C 1801.1 378.8, 1857.8 378.8, 1857.8 427 C 1857.8 379.5, 1933.2 379.5, 1933.2 424.8 C 1933.2 369, 2010 369, 2010 423.1 L 2010 1100 Z" fill="#c0dfc3"/>
  <!-- Tall trees standing up out of the far forest, pale in the haze. -->
  <rect x="243.0" y="250" width="14" height="190" fill="#b8dbbe"/>
  <ellipse cx="250" cy="250" rx="105.0" ry="43.4" fill="#b8dbbe"/>
  <ellipse cx="201.0" cy="264.0" rx="63.0" ry="33.6" fill="#b8dbbe"/>
  <ellipse cx="306.0" cy="260.5" rx="59.5" ry="31.5" fill="#b8dbbe"/>
  <rect x="554.0" y="300" width="12" height="140" fill="#b8dbbe"/>
  <ellipse cx="560" cy="300" rx="87.0" ry="35.96" fill="#b8dbbe"/>
  <ellipse cx="519.4" cy="311.6" rx="52.2" ry="27.84" fill="#b8dbbe"/>
  <ellipse cx="606.4" cy="308.7" rx="49.3" ry="26.1" fill="#b8dbbe"/>
  <rect x="852.0" y="210" width="16" height="230" fill="#b8dbbe"/>
  <ellipse cx="860" cy="210" rx="126.0" ry="52.08" fill="#b8dbbe"/>
  <ellipse cx="801.2" cy="226.8" rx="75.60000000000001" ry="40.32" fill="#b8dbbe"/>
  <ellipse cx="927.2" cy="222.6" rx="71.39999999999999" ry="37.800000000000004" fill="#b8dbbe"/>
  <rect x="1304.0" y="280" width="12" height="160" fill="#b8dbbe"/>
  <ellipse cx="1310" cy="280" rx="93.0" ry="38.44" fill="#b8dbbe"/>
  <ellipse cx="1266.6" cy="292.4" rx="55.800000000000004" ry="29.759999999999998" fill="#b8dbbe"/>
  <ellipse cx="1359.6" cy="289.3" rx="52.699999999999996" ry="27.900000000000002" fill="#b8dbbe"/>
  <rect x="1783.0" y="236" width="14" height="204" fill="#b8dbbe"/>
  <ellipse cx="1790" cy="236" rx="105.0" ry="43.4" fill="#b8dbbe"/>
  <ellipse cx="1741.0" cy="250.0" rx="63.0" ry="33.6" fill="#b8dbbe"/>
  <ellipse cx="1846.0" cy="246.5" rx="59.5" ry="31.5" fill="#b8dbbe"/>
  <path d="M -60 1100 L -60 480 C -60 410.5, 49.9 410.5, 49.9 478.6 C 49.9 397.3, 154 397.3, 154 474.8 C 154 408.9, 247.1 408.9, 247.1 477.3 C 247.1 412.1, 331.8 412.1, 331.8 463.1 C 331.8 405.8, 441.3 405.8, 441.3 475.4 C 441.3 435.1, 507 435.1, 507 474.6 C 507 412.4, 589.3 412.4, 589.3 470.5 C 589.3 435.6, 664.6 435.6, 664.6 477.7 C 664.6 401.8, 753.1 401.8, 753.1 476.9 C 753.1 392.3, 860 392.3, 860 464.6 C 860 409.1, 960.6 409.1, 960.6 463.3 C 960.6 402.8, 1070.8 402.8, 1070.8 467.8 C 1070.8 417.1, 1156.9 417.1, 1156.9 464.3 C 1156.9 415.7, 1245 415.7, 1245 465 C 1245 404.5, 1352.2 404.5, 1352.2 464.4 C 1352.2 420.3, 1450.9 420.3, 1450.9 474.5 C 1450.9 403.4, 1548.5 403.4, 1548.5 475.4 C 1548.5 394.1, 1656.2 394.1, 1656.2 468 C 1656.2 410.7, 1744.4 410.7, 1744.4 470 C 1744.4 425, 1823.4 425, 1823.4 464.1 C 1823.4 409.7, 1917.3 409.7, 1917.3 467.7 C 1917.3 403.8, 2024.9 403.8, 2024.9 479 L 2024.9 1100 Z" fill="#a5d0b1"/>
  <!-- A waterfall pouring off a mossy cliff, far off on the right. -->
  <path d="M1405 660 C 1410 560, 1418 430, 1440 330 C 1452 280, 1478 252, 1512 246 L 1650 240 C 1690 244, 1712 276, 1722 330 C 1740 430, 1748 560, 1752 660 Z" fill="#8fb9a2"/>
  <path d="M1650 240 C 1690 244, 1712 276, 1722 330 C 1740 430, 1748 560, 1752 660 L 1660 660 C 1668 540, 1664 400, 1650 240 Z" fill="#2b2b3a" opacity="0.08"/>
  <path d="M1405 660 C 1410 560, 1418 430, 1440 330 C 1452 280, 1478 252, 1512 246 C 1490 300, 1470 420, 1462 660 Z" fill="#ffffff" opacity="0.12"/>
  <path d="M 1474 304 L 1474 266 C 1474 243.4, 1509 243.4, 1509 263 C 1509 247.9, 1549.1 247.9, 1549.1 261.8 C 1549.1 239, 1584.4 239, 1584.4 263.6 C 1584.4 237.1, 1627.1 237.1, 1627.1 265.2 C 1627.1 236.7, 1667.2 236.7, 1667.2 262.3 C 1667.2 240.2, 1707.8 240.2, 1707.8 263 L 1707.8 304 Z" fill="#98c8a6"/>
  <path d="M1528 250 C 1530 380, 1532 520, 1526 640 L 1614 640 C 1608 520, 1610 380, 1612 250 Z" fill="#e3f4f0"/>
  <rect x="1540" y="262" width="7" height="338" rx="3.5" fill="#ffffff" opacity="0.7"/>
  <rect x="1562" y="300" width="5" height="330" rx="2.5" fill="#ffffff" opacity="0.7"/>
  <rect x="1584" y="258" width="8" height="302" rx="4.0" fill="#ffffff" opacity="0.7"/>
  <rect x="1600" y="330" width="5" height="290" rx="2.5" fill="#ffffff" opacity="0.7"/>
  <path d="M1528 250 C 1530 380, 1532 520, 1526 640 L 1544 640 C 1546 520, 1544 380, 1540 250 Z" fill="#9fcfd0" opacity="0.5"/>
  <!-- The pool it falls into, and its spray. -->
  <ellipse cx="1570" cy="652" rx="150" ry="20" fill="#a5d8d6"/>
  <ellipse cx="1570" cy="646" rx="96" ry="10" fill="#ffffff" opacity="0.5"/>
  <circle cx="1530" cy="632" r="26" fill="#f4fbf7" opacity="0.85"/>
  <circle cx="1566" cy="624" r="32" fill="#f4fbf7" opacity="0.85"/>
  <circle cx="1606" cy="632" r="26" fill="#f4fbf7" opacity="0.85"/>
  <circle cx="1548" cy="640" r="20" fill="#f4fbf7" opacity="0.85"/>
  <circle cx="1590" cy="641" r="22" fill="#f4fbf7" opacity="0.85"/>
  <!-- Middle forest: trunks and crowns. -->
  <rect x="130.8" y="500" width="18.4" height="180" fill="#73a888"/>
  <rect x="321.5" y="500" width="17" height="180" fill="#73a888"/>
  <rect x="510" y="500" width="20" height="180" fill="#73a888"/>
  <rect x="691.2" y="500" width="17.5" height="180" fill="#73a888"/>
  <rect x="871.7" y="500" width="16.7" height="180" fill="#73a888"/>
  <rect x="1040" y="500" width="20" height="180" fill="#73a888"/>
  <rect x="1237.4" y="500" width="25.2" height="180" fill="#73a888"/>
  <rect x="1368" y="500" width="24" height="180" fill="#73a888"/>
  <rect x="1778.2" y="500" width="23.7" height="180" fill="#73a888"/>
  <path d="M -50 560 L -50 520 C -50 430.4, 50.3 430.4, 50.3 501.2 C 50.3 454.2, 156.2 454.2, 156.2 510.7 C 156.2 419.3, 271.9 419.3, 271.9 517.7 C 271.9 453.3, 364.8 453.3, 364.8 508.5 C 364.8 474.9, 435.8 474.9, 435.8 501.7 C 435.8 438, 543 438, 543 517.2 C 543 473.8, 643 473.8, 643 502.6 C 643 442.3, 723.5 442.3, 723.5 502.6 C 723.5 446.4, 807.8 446.4, 807.8 506.4 C 807.8 443.1, 888 443.1, 888 500.7 C 888 449.6, 1001.3 449.6, 1001.3 516.7 C 1001.3 473.1, 1078.7 473.1, 1078.7 507.9 C 1078.7 466.6, 1149.3 466.6, 1149.3 513.8 C 1149.3 449.5, 1258.9 449.5, 1258.9 510.4 C 1258.9 434.3, 1363.2 434.3, 1363.2 519.5 C 1363.2 455.9, 1469.6 455.9, 1469.6 504.2 L 1469.6 560 Z" fill="#80b894"/>
  <path d="M 1740 570 L 1740 530 C 1740 462.6, 1829.4 462.6, 1829.4 526.1 C 1829.4 479.9, 1893.4 479.9, 1893.4 518.6 C 1893.4 477.6, 1969.3 477.6, 1969.3 518 C 1969.3 468.9, 2056.7 468.9, 2056.7 519.8 L 2056.7 570 Z" fill="#80b894"/>
  <path d="M -50 640 L -50 590 C -50 529.1, 38.4 529.1, 38.4 587.6 C 38.4 524.3, 127.5 524.3, 127.5 579.8 C 127.5 529.9, 212.1 529.9, 212.1 584.9 C 212.1 543.2, 291.4 543.2, 291.4 586.6 C 291.4 515.2, 376 515.2, 376 586.6 C 376 536.7, 463 536.7, 463 583.2 C 463 541.8, 532.1 541.8, 532.1 584.6 C 532.1 525.1, 606.6 525.1, 606.6 583.9 C 606.6 522.4, 691.4 522.4, 691.4 575.8 C 691.4 559.3, 746.4 559.3, 746.4 575.9 C 746.4 536.4, 825.1 536.4, 825.1 582.6 C 825.1 547.4, 910.8 547.4, 910.8 589.3 C 910.8 531.2, 981.7 531.2, 981.7 584 C 981.7 527.6, 1053.7 527.6, 1053.7 584.7 C 1053.7 534.2, 1116.4 534.2, 1116.4 585.2 C 1116.4 533.6, 1202.7 533.6, 1202.7 588.9 C 1202.7 525.1, 1289 525.1, 1289 588.3 C 1289 528.4, 1360.7 528.4, 1360.7 576.1 C 1360.7 549.2, 1441.2 549.2, 1441.2 576.6 L 1441.2 640 Z" fill="#6ea782"/>
  <path d="M 1745 640 L 1745 596 C 1745 554.6, 1804.6 554.6, 1804.6 590.6 C 1804.6 555.5, 1865.7 555.5, 1865.7 588.4 C 1865.7 564.1, 1914 564.1, 1914 594.3 C 1914 541.5, 1985.8 541.5, 1985.8 584.5 C 1985.8 542.7, 2041.9 542.7, 2041.9 588 L 2041.9 640 Z" fill="#6ea782"/>
  <path d="M -40 700 L -40 640 C -40 608.2, 8.1 608.2, 8.1 634.4 C 8.1 602.7, 52.2 602.7, 52.2 638.3 C 52.2 601.3, 112.3 601.3, 112.3 636 C 112.3 610.6, 159.4 610.6, 159.4 638.1 C 159.4 612.9, 201.6 612.9, 201.6 632.8 C 201.6 611.8, 254.1 611.8, 254.1 632.1 C 254.1 609.9, 297.5 609.9, 297.5 634.7 C 297.5 602.9, 348.9 602.9, 348.9 634.8 C 348.9 600.8, 416.4 600.8, 416.4 639.5 C 416.4 600.5, 485.3 600.5, 485.3 632.4 C 485.3 592.4, 543.5 592.4, 543.5 637.7 C 543.5 606.6, 595.4 606.6, 595.4 633.9 C 595.4 603.6, 639.8 603.6, 639.8 632.4 C 639.8 601.8, 705.7 601.8, 705.7 638.8 C 705.7 608.6, 762.5 608.6, 762.5 632.8 C 762.5 604.5, 818.8 604.5, 818.8 638 C 818.8 614.7, 860.7 614.7, 860.7 636.6 C 860.7 594.6, 913.2 594.6, 913.2 638.6 C 913.2 604.5, 966.2 604.5, 966.2 632.2 C 966.2 607.6, 1013.6 607.6, 1013.6 639.9 C 1013.6 605.4, 1077.2 605.4, 1077.2 636.5 C 1077.2 608, 1125.5 608, 1125.5 636.7 C 1125.5 609.7, 1184 609.7, 1184 639.3 C 1184 610.3, 1228.7 610.3, 1228.7 633.5 C 1228.7 592.3, 1284.8 592.3, 1284.8 639.5 C 1284.8 614.3, 1326.9 614.3, 1326.9 635.4 C 1326.9 592.8, 1389.9 592.8, 1389.9 640 C 1389.9 594.7, 1455.6 594.7, 1455.6 639.7 L 1455.6 700 Z" fill="#5e9771"/>
  <path d="M 1735 700 L 1735 640 C 1735 611.7, 1787 611.7, 1787 633.9 C 1787 605.2, 1828.7 605.2, 1828.7 639.4 C 1828.7 609.6, 1882.7 609.6, 1882.7 637.3 C 1882.7 599.9, 1940.1 599.9, 1940.1 638.9 C 1940.1 611.4, 1987 611.4, 1987 633.5 C 1987 602.7, 2041.8 602.7, 2041.8 634.8 L 2041.8 700 Z" fill="#5e9771"/>
  <!-- The forest floor, where the walkers stand. Mossy far off, leaf litter near. -->
  <path d="M-10 662 C 200 650, 420 668, 700 658 C 980 648, 1220 666, 1500 656 C 1680 650, 1820 660, 1930 654 L1930 1090 L-10 1090 Z" fill="#97a85e"/>
  <path d="M-10 762 C 220 742, 460 772, 760 756 C 1060 740, 1300 770, 1580 754 C 1740 746, 1860 758, 1930 752 L1930 1090 L-10 1090 Z" fill="#879652"/>
  <path d="M-10 892 C 240 870, 520 904, 860 884 C 1180 866, 1440 900, 1700 882 C 1800 876, 1880 884, 1930 880 L1930 1090 L-10 1090 Z" fill="#788548"/>
  <ellipse cx="1074.8" cy="861.9" rx="20.6" ry="6.6" transform="rotate(21.2 1074.8 861.9)" fill="#a88a4f" opacity="0.45"/>
  <ellipse cx="1641.7" cy="861.7" rx="20.6" ry="6.6" transform="rotate(-15.5 1641.7 861.7)" fill="#6f8a3e" opacity="0.45"/>
  <ellipse cx="1178.8" cy="870.8" rx="21" ry="6.7" transform="rotate(-15.7 1178.8 870.8)" fill="#a88a4f" opacity="0.45"/>
  <ellipse cx="174.1" cy="805.3" rx="17.6" ry="5.6" transform="rotate(15.5 174.1 805.3)" fill="#6f8a3e" opacity="0.45"/>
  <ellipse cx="1143.2" cy="931.1" rx="24.2" ry="7.7" transform="rotate(-5.2 1143.2 931.1)" fill="#a88a4f" opacity="0.45"/>
  <ellipse cx="1181.9" cy="938.5" rx="24.6" ry="7.9" transform="rotate(-17.1 1181.9 938.5)" fill="#b39a5c" opacity="0.45"/>
  <ellipse cx="121.3" cy="1006" rx="28.1" ry="9" transform="rotate(-23.2 121.3 1006)" fill="#b39a5c" opacity="0.45"/>
  <ellipse cx="1494" cy="917.9" rx="23.5" ry="7.5" transform="rotate(-8.7 1494 917.9)" fill="#6f8a3e" opacity="0.45"/>
  <ellipse cx="996.7" cy="1010.1" rx="28.3" ry="9.1" transform="rotate(7 996.7 1010.1)" fill="#a88a4f" opacity="0.45"/>
  <ellipse cx="163.2" cy="691.7" rx="11.7" ry="3.7" transform="rotate(7.7 163.2 691.7)" fill="#a88a4f" opacity="0.45"/>
  <ellipse cx="1911.7" cy="1069.1" rx="31.4" ry="10.1" transform="rotate(17 1911.7 1069.1)" fill="#6f8a3e" opacity="0.45"/>
  <ellipse cx="1455.3" cy="786.5" rx="16.6" ry="5.3" transform="rotate(0.6 1455.3 786.5)" fill="#b39a5c" opacity="0.45"/>
  <ellipse cx="1471.3" cy="716.7" rx="13" ry="4.2" transform="rotate(-5 1471.3 716.7)" fill="#a88a4f" opacity="0.45"/>
  <ellipse cx="1839.4" cy="836.9" rx="19.3" ry="6.2" transform="rotate(17.4 1839.4 836.9)" fill="#b39a5c" opacity="0.45"/>
  <ellipse cx="1779.9" cy="771.1" rx="15.8" ry="5.1" transform="rotate(-22.4 1779.9 771.1)" fill="#a88a4f" opacity="0.45"/>
  <ellipse cx="763.1" cy="1062.5" rx="31.1" ry="9.9" transform="rotate(-21.3 763.1 1062.5)" fill="#6f8a3e" opacity="0.45"/>
  <ellipse cx="1295.8" cy="765.4" rx="15.5" ry="5" transform="rotate(-8.2 1295.8 765.4)" fill="#a88a4f" opacity="0.45"/>
  <ellipse cx="1851" cy="816.4" rx="18.2" ry="5.8" transform="rotate(12.9 1851 816.4)" fill="#b39a5c" opacity="0.45"/>
  <ellipse cx="1357.5" cy="741.1" rx="14.3" ry="4.6" transform="rotate(-24.5 1357.5 741.1)" fill="#a88a4f" opacity="0.45"/>
  <ellipse cx="341.1" cy="992.9" rx="27.4" ry="8.8" transform="rotate(3 341.1 992.9)" fill="#a88a4f" opacity="0.45"/>
  <ellipse cx="1891.7" cy="883.4" rx="21.7" ry="6.9" transform="rotate(13.5 1891.7 883.4)" fill="#a88a4f" opacity="0.45"/>
  <ellipse cx="223.7" cy="934.6" rx="24.4" ry="7.8" transform="rotate(-4 223.7 934.6)" fill="#b39a5c" opacity="0.45"/>
  <ellipse cx="1659.5" cy="690.2" rx="11.6" ry="3.7" transform="rotate(23.7 1659.5 690.2)" fill="#6f8a3e" opacity="0.45"/>
  <ellipse cx="1698.9" cy="805.6" rx="17.6" ry="5.6" transform="rotate(-14.5 1698.9 805.6)" fill="#a88a4f" opacity="0.45"/>
  <ellipse cx="1155.9" cy="1068.4" rx="31.4" ry="10" transform="rotate(3.8 1155.9 1068.4)" fill="#b39a5c" opacity="0.45"/>
  <ellipse cx="409.4" cy="1065.9" rx="31.3" ry="10" transform="rotate(-12.1 409.4 1065.9)" fill="#6f8a3e" opacity="0.45"/>
  <ellipse cx="568.9" cy="815" rx="18.1" ry="5.8" transform="rotate(-21.3 568.9 815)" fill="#b39a5c" opacity="0.45"/>
  <ellipse cx="1222.2" cy="769.3" rx="15.7" ry="5" transform="rotate(-24.2 1222.2 769.3)" fill="#a88a4f" opacity="0.45"/>
  <ellipse cx="870.2" cy="831.2" rx="19" ry="6.1" transform="rotate(23 870.2 831.2)" fill="#a88a4f" opacity="0.45"/>
  <ellipse cx="260.6" cy="1006.3" rx="28.1" ry="9" transform="rotate(-5.7 260.6 1006.3)" fill="#6f8a3e" opacity="0.45"/>
  <ellipse cx="1744.2" cy="748.6" rx="14.6" ry="4.7" transform="rotate(15.9 1744.2 748.6)" fill="#b39a5c" opacity="0.45"/>
  <ellipse cx="304.3" cy="965.6" rx="26" ry="8.3" transform="rotate(6.4 304.3 965.6)" fill="#6f8a3e" opacity="0.45"/>
  <ellipse cx="1824.3" cy="764.7" rx="15.5" ry="5" transform="rotate(19.1 1824.3 764.7)" fill="#6f8a3e" opacity="0.45"/>
  <ellipse cx="91" cy="719.8" rx="13.1" ry="4.2" transform="rotate(-19.5 91 719.8)" fill="#6f8a3e" opacity="0.45"/>
  <ellipse cx="457.7" cy="1055.8" rx="30.7" ry="9.8" transform="rotate(10.2 457.7 1055.8)" fill="#a88a4f" opacity="0.45"/>
  <ellipse cx="1737.3" cy="849.9" rx="19.9" ry="6.4" transform="rotate(-0.5 1737.3 849.9)" fill="#6f8a3e" opacity="0.45"/>
  <ellipse cx="1383.1" cy="756.7" rx="15.1" ry="4.8" transform="rotate(-21.6 1383.1 756.7)" fill="#b39a5c" opacity="0.45"/>
  <ellipse cx="1254.7" cy="872.1" rx="21.1" ry="6.8" transform="rotate(5.8 1254.7 872.1)" fill="#b39a5c" opacity="0.45"/>
  <ellipse cx="1761.3" cy="796.5" rx="17.1" ry="5.5" transform="rotate(-14.8 1761.3 796.5)" fill="#b39a5c" opacity="0.45"/>
  <ellipse cx="789.9" cy="716.3" rx="12.9" ry="4.1" transform="rotate(-12.5 789.9 716.3)" fill="#b39a5c" opacity="0.45"/>
  <ellipse cx="708.1" cy="757" rx="15.1" ry="4.8" transform="rotate(3.6 708.1 757)" fill="#b39a5c" opacity="0.45"/>
  <ellipse cx="265.7" cy="725" rx="13.4" ry="4.3" transform="rotate(-2.5 265.7 725)" fill="#a88a4f" opacity="0.45"/>
  <ellipse cx="1327.1" cy="939.6" rx="24.6" ry="7.9" transform="rotate(4.2 1327.1 939.6)" fill="#b39a5c" opacity="0.45"/>
  <ellipse cx="1773.3" cy="914.2" rx="23.3" ry="7.5" transform="rotate(-1.3 1773.3 914.2)" fill="#a88a4f" opacity="0.45"/>
  <ellipse cx="1848.5" cy="956.4" rx="25.5" ry="8.2" transform="rotate(-23.9 1848.5 956.4)" fill="#6f8a3e" opacity="0.45"/>
  <ellipse cx="129.2" cy="718.4" rx="13.1" ry="4.2" transform="rotate(-9.4 129.2 718.4)" fill="#b39a5c" opacity="0.45"/>
  <!-- The great bough across the middle, where tree animals walk and hang.
       Feet rest between y 540 and 567 (BOUGH in scenes/motion.ts), and the sloth hooks its claws round the underside, y 590 to 600 (BOUGH_UNDERSIDE). -->
  <path d="M 96 462 C 104 500, 92 534.1, 100 534.1 L 140 534.4 L 180 534.7 L 220 534.8 L 260 535 L 300 535 L 340 535 L 380 534.9 L 420 534.7 L 460 534.5 L 500 534.2 L 540 533.9 L 580 533.5 L 620 533 L 660 532.6 L 700 532.1 L 740 531.7 L 780 531.2 L 820 530.8 L 860 530.4 L 900 530 L 940 529.7 L 980 529.4 L 1020 529.2 L 1060 529.1 L 1100 529 L 1140 529 L 1180 529.1 L 1220 529.2 L 1260 529.4 L 1300 529.7 L 1340 530 L 1380 530.4 L 1420 530.8 L 1460 531.2 L 1500 531.7 L 1540 532.1 L 1580 532.6 L 1620 533 L 1660 533.4 L 1700 533.8 L 1740 534.2 L 1780 534.5 L 1820 534.7 L 1860 534.9 L 1880 601 L 1820 601.5 L 1780 601.9 L 1740 602.2 L 1700 602.4 L 1660 602.7 L 1620 602.9 L 1580 603 L 1540 603.1 L 1500 603.1 L 1460 603.1 L 1420 603 L 1380 603 L 1340 602.9 L 1300 602.7 L 1260 602.5 L 1220 602.4 L 1180 602.2 L 1140 602 L 1100 601.8 L 1060 601.7 L 1020 601.6 L 980 601.5 L 940 601.5 L 900 601.4 L 860 601.4 L 820 601.5 L 780 601.6 L 740 601.8 L 700 602 L 660 602.3 L 620 602.5 L 580 602.9 L 540 603.2 L 500 603.6 L 460 604 L 420 604.5 L 380 604.9 L 340 605.4 L 300 605.8 L 260 606.2 L 220 606.6 L 180 606.9 L 140 607.3 L 100 607.6 C 92 607.5, 104 656, 96 695.8 Z" fill="#7a5a44"/>
  <path d="M 100 534.1 L 140 534.4 L 180 534.7 L 220 534.8 L 260 535 L 300 535 L 340 535 L 380 534.9 L 420 534.7 L 460 534.5 L 500 534.2 L 540 533.9 L 580 533.5 L 620 533 L 660 532.6 L 700 532.1 L 740 531.7 L 780 531.2 L 820 530.8 L 860 530.4 L 900 530 L 940 529.7 L 980 529.4 L 1020 529.2 L 1060 529.1 L 1100 529 L 1140 529 L 1180 529.1 L 1220 529.2 L 1260 529.4 L 1300 529.7 L 1340 530 L 1380 530.4 L 1420 530.8 L 1460 531.2 L 1500 531.7 L 1540 532.1 L 1580 532.6 L 1620 533 L 1660 533.4 L 1700 533.8 L 1740 534.2 L 1780 534.5 L 1820 534.7 L 1860 534.9 L 1880 562.7 L 1820 563.1 L 1780 563.5 L 1740 563.8 L 1700 564 L 1660 564.1 L 1620 564.2 L 1580 564.2 L 1540 564.2 L 1500 564.1 L 1460 564 L 1420 563.8 L 1380 563.6 L 1340 563.4 L 1300 563.2 L 1260 563.1 L 1220 562.9 L 1180 562.8 L 1140 562.7 L 1100 562.7 L 1060 562.7 L 1020 562.8 L 980 562.9 L 940 563.2 L 900 563.5 L 860 563.8 L 820 564.3 L 780 564.8 L 740 565.4 L 700 566 L 660 566.6 L 620 567.4 L 580 568.1 L 540 568.8 L 500 569.6 L 460 570.3 L 420 571 L 380 571.7 L 340 553.7 L 300 553.3 L 260 552.9 L 220 552.4 L 180 552 L 140 551.5 L 100 551 Z" fill="#94704f"/>
  <path d="M 100 585.6 L 140 585.3 L 180 584.9 L 220 584.6 L 260 584.2 L 300 583.8 L 340 583.4 L 380 582.9 L 420 582.5 L 460 582 L 500 581.6 L 540 581.2 L 580 580.9 L 620 580.5 L 660 580.3 L 700 580 L 740 579.8 L 780 579.6 L 820 579.5 L 860 579.4 L 900 579.4 L 940 579.5 L 980 579.5 L 1020 579.6 L 1060 579.7 L 1100 579.8 L 1140 580 L 1180 580.2 L 1220 580.4 L 1260 580.5 L 1300 580.7 L 1340 580.9 L 1380 581 L 1420 581 L 1460 581.1 L 1500 581.1 L 1540 581.1 L 1580 581 L 1620 580.9 L 1660 580.7 L 1700 580.4 L 1740 580.2 L 1780 579.9 L 1820 579.5 L 1860 579.1 L 1860 601.1 L 1820 601.5 L 1780 601.9 L 1740 602.2 L 1700 602.4 L 1660 602.7 L 1620 602.9 L 1580 603 L 1540 603.1 L 1500 603.1 L 1460 603.1 L 1420 603 L 1380 603 L 1340 602.9 L 1300 602.7 L 1260 602.5 L 1220 602.4 L 1180 602.2 L 1140 602 L 1100 601.8 L 1060 601.7 L 1020 601.6 L 980 601.5 L 940 601.5 L 900 601.4 L 860 601.4 L 820 601.5 L 780 601.6 L 740 601.8 L 700 602 L 660 602.3 L 620 602.5 L 580 602.9 L 540 603.2 L 500 603.6 L 460 604 L 420 604.5 L 380 604.9 L 340 605.4 L 300 605.8 L 260 606.2 L 220 606.6 L 180 606.9 L 140 607.3 L 100 607.6 Z" fill="#2b2b3a" opacity="0.2"/>
  <rect x="168.5" y="580.6" width="58.4" height="6" rx="3" fill="#2b2b3a" opacity="0.13"/>
  <rect x="300" y="580.4" width="40.8" height="6" rx="3" fill="#2b2b3a" opacity="0.13"/>
  <rect x="380.7" y="580.1" width="48.7" height="6" rx="3" fill="#2b2b3a" opacity="0.13"/>
  <rect x="516.4" y="579.3" width="63.6" height="6" rx="3" fill="#2b2b3a" opacity="0.13"/>
  <rect x="661.4" y="578.3" width="56.4" height="6" rx="3" fill="#2b2b3a" opacity="0.13"/>
  <rect x="773.5" y="577.5" width="58.5" height="6" rx="3" fill="#2b2b3a" opacity="0.13"/>
  <rect x="868.7" y="577" width="51" height="6" rx="3" fill="#2b2b3a" opacity="0.13"/>
  <rect x="989.7" y="576.7" width="66.8" height="6" rx="3" fill="#2b2b3a" opacity="0.13"/>
  <rect x="1103.5" y="576.8" width="63.8" height="6" rx="3" fill="#2b2b3a" opacity="0.13"/>
  <rect x="1224.5" y="577.1" width="59.4" height="6" rx="3" fill="#2b2b3a" opacity="0.13"/>
  <rect x="1360.2" y="577.9" width="49.8" height="6" rx="3" fill="#2b2b3a" opacity="0.13"/>
  <rect x="1510.5" y="578.9" width="36.6" height="6" rx="3" fill="#2b2b3a" opacity="0.13"/>
  <rect x="1583.6" y="579.3" width="67.1" height="6" rx="3" fill="#2b2b3a" opacity="0.13"/>
  <rect x="1730.5" y="579.9" width="39.1" height="6" rx="3" fill="#2b2b3a" opacity="0.13"/>
  <ellipse cx="690" cy="574.1" rx="17" ry="12" fill="#5a3f2e"/>
  <ellipse cx="691" cy="575.1" rx="9" ry="6" fill="#2b2b3a" opacity="0.45"/>
  <ellipse cx="1420" cy="574.3" rx="13.6" ry="9.6" fill="#5a3f2e"/>
  <ellipse cx="1421" cy="575.3" rx="7.2" ry="4.8" fill="#2b2b3a" opacity="0.45"/>
  <path d="M 174.4 541.6 C 181.2 529.6, 201.6 527.6, 208.4 532.6 C 216.6 526.6, 237 529.6, 242.4 541.6 Z" fill="#7fa850"/>
  <path d="M 225.6 541.9 C 230.5 529.9, 245.3 527.9, 250.2 532.9 C 256.2 526.9, 270.9 529.9, 274.9 541.9 Z" fill="#7fa850"/>
  <path d="M 321.8 542 C 326.3 530, 339.9 528, 344.4 533 C 349.8 527, 363.4 530, 367 542 Z" fill="#7fa850"/>
  <path d="M 441.1 541.6 C 445.1 529.6, 457 527.6, 461 532.6 C 465.8 526.6, 477.8 529.6, 481 541.6 Z" fill="#7fa850"/>
  <path d="M 539.8 540.9 C 543.4 528.9, 554.2 526.9, 557.8 531.9 C 562.1 525.9, 572.8 528.9, 575.7 540.9 Z" fill="#7fa850"/>
  <path d="M 608.6 540.2 C 614.9 528.2, 633.9 526.2, 640.2 531.2 C 647.8 525.2, 666.9 528.2, 671.9 540.2 Z" fill="#7fa850"/>
  <path d="M 715 539 C 719.9 527, 734.7 525, 739.6 530 C 745.5 524, 760.2 527, 764.1 539 Z" fill="#7fa850"/>
  <path d="M 819.8 537.8 C 824.9 525.8, 840.3 523.8, 845.4 528.8 C 851.5 522.8, 866.9 525.8, 871 537.8 Z" fill="#7fa850"/>
  <path d="M 904.2 537 C 907.7 525, 918.3 523, 921.8 528 C 926 522, 936.5 525, 939.3 537 Z" fill="#7fa850"/>
  <path d="M 1016.3 536.2 C 1023.2 524.2, 1043.8 522.2, 1050.7 527.2 C 1059 521.2, 1079.6 524.2, 1085.1 536.2 Z" fill="#7fa850"/>
  <path d="M 1123.8 536 C 1129.6 524, 1147 522, 1152.8 527 C 1159.7 521, 1177.1 524, 1181.7 536 Z" fill="#7fa850"/>
  <path d="M 1187.8 536.1 C 1192.5 524.1, 1206.6 522.1, 1211.4 527.1 C 1217 521.1, 1231.1 524.1, 1234.9 536.1 Z" fill="#7fa850"/>
  <path d="M 1299.5 536.7 C 1305.3 524.7, 1322.8 522.7, 1328.6 527.7 C 1335.6 521.7, 1353.1 524.7, 1357.8 536.7 Z" fill="#7fa850"/>
  <path d="M 1365.7 537.2 C 1369.9 525.2, 1382.7 523.2, 1386.9 528.2 C 1392 522.2, 1404.8 525.2, 1408.2 537.2 Z" fill="#7fa850"/>
  <path d="M 1473.2 538.4 C 1478.4 526.4, 1494.1 524.4, 1499.4 529.4 C 1505.7 523.4, 1521.4 526.4, 1525.6 538.4 Z" fill="#7fa850"/>
  <path d="M 1590.5 539.7 C 1595.7 527.7, 1611.3 525.7, 1616.5 530.7 C 1622.7 524.7, 1638.3 527.7, 1642.5 539.7 Z" fill="#7fa850"/>
  <path d="M 1646.4 540.3 C 1652.8 528.3, 1671.9 526.3, 1678.2 531.3 C 1685.8 525.3, 1704.9 528.3, 1710 540.3 Z" fill="#7fa850"/>
  <path d="M 1761.5 541.3 C 1766.8 529.3, 1782.6 527.3, 1787.8 532.3 C 1794.2 526.3, 1810 529.3, 1814.2 541.3 Z" fill="#7fa850"/>
  <!-- Lianas wound round the bough and looping down from it. -->
  <path d="M 408 536.7 L 452 602.1" fill="none" stroke="#5c7d3c" stroke-width="9" stroke-linecap="round"/>
  <path d="M 440 536.7 L 484 601.8" fill="none" stroke="#668a43" stroke-width="8" stroke-linecap="round"/>
  <path d="M 1158 531.1 L 1202 600.3" fill="none" stroke="#5c7d3c" stroke-width="9" stroke-linecap="round"/>
  <path d="M 1190 531.1 L 1234 600.5" fill="none" stroke="#668a43" stroke-width="8" stroke-linecap="round"/>
  <path d="M 1638 535.4 L 1682 600.5" fill="none" stroke="#5c7d3c" stroke-width="9" stroke-linecap="round"/>
  <path d="M 1670 535.4 L 1714 600.4" fill="none" stroke="#668a43" stroke-width="8" stroke-linecap="round"/>
  <path d="M 300 601.8 Q 410 744.5 520 599.5" fill="none" stroke="#5c7d3c" stroke-width="7" stroke-linecap="round"/>
  <path d="M 860 597.4 Q 935 702 1010 597.6" fill="none" stroke="#668a43" stroke-width="7" stroke-linecap="round"/>
  <path d="M 1260 598.5 Q 1365 726.9 1470 599.1" fill="none" stroke="#5c7d3c" stroke-width="7" stroke-linecap="round"/>
  <!-- The great tree on the left, its buttress roots spread over the floor. -->
  <path d="M-20 -10 L 120 -10 C 116 200, 112 420, 118 600 C 122 660, 150 700, 210 726 C 240 738, 262 748, 270 760 C 236 762, 200 756, 170 746 C 150 740, 136 738, 128 744 C 116 752, 92 760, 60 764 C 30 766, 0 768, -20 768 Z" fill="#6b4a33"/>
  <path d="M78 -10 L 120 -10 C 116 200, 112 420, 118 600 C 122 660, 150 700, 210 726 C 240 738, 262 748, 270 760 C 236 762, 200 756, 170 746 C 150 740, 136 738, 128 744 C 120 690, 96 640, 92 560 C 88 400, 86 200, 78 -10 Z" fill="#2b2b3a" opacity="0.2"/>
  <path d="M10 -10 L 34 -10 C 38 200, 40 420, 38 620 C 36 680, 30 720, 20 760 L 4 762 C 14 720, 20 680, 22 620 C 24 420, 20 200, 10 -10 Z" fill="#ffffff" opacity="0.1"/>
  <path d="M-20 700 C 10 716, 40 740, 52 766 L -20 768 Z" fill="#2b2b3a" opacity="0.12"/>
  <!-- And a thinner one on the right that the bough runs into. -->
  <path d="M1846 -10 L 1940 -10 L 1940 712 C 1910 708, 1880 700, 1858 690 C 1830 678, 1810 670, 1792 668 C 1820 650, 1838 610, 1840 540 C 1844 360, 1848 160, 1846 -10 Z" fill="#6b4a33"/>
  <path d="M1846 -10 L 1868 -10 C 1872 160, 1868 360, 1864 540 C 1862 610, 1846 650, 1820 668 C 1810 670, 1800 669, 1792 668 C 1820 650, 1838 610, 1840 540 C 1844 360, 1848 160, 1846 -10 Z" fill="#ffffff" opacity="0.1"/>
  <path d="M1900 -10 L 1940 -10 L 1940 712 C 1924 710, 1910 706, 1896 700 C 1904 500, 1906 240, 1900 -10 Z" fill="#2b2b3a" opacity="0.2"/>
  <!-- Thin vines hanging far off in the light. -->
  <path d="M 330 40 C 344 144, 318 222, 334 300" fill="none" stroke="#7fae7f" stroke-width="4" stroke-linecap="round"/>
  <ellipse cx="321" cy="132" rx="9" ry="4.5" transform="rotate(30 321 132)" fill="#7fae7f"/>
  <ellipse cx="339" cy="202" rx="9" ry="4.5" transform="rotate(-30 339 202)" fill="#7fae7f"/>
  <ellipse cx="321" cy="272" rx="9" ry="4.5" transform="rotate(30 321 272)" fill="#7fae7f"/>
  <path d="M 610 40 C 624 124, 598 187, 614 250" fill="none" stroke="#7fae7f" stroke-width="4" stroke-linecap="round"/>
  <ellipse cx="601" cy="122" rx="9" ry="4.5" transform="rotate(30 601 122)" fill="#7fae7f"/>
  <ellipse cx="619" cy="175.3" rx="9" ry="4.5" transform="rotate(-30 619 175.3)" fill="#7fae7f"/>
  <ellipse cx="601" cy="228.7" rx="9" ry="4.5" transform="rotate(30 601 228.7)" fill="#7fae7f"/>
  <path d="M 980 40 C 994 156, 968 243, 984 330" fill="none" stroke="#7fae7f" stroke-width="4" stroke-linecap="round"/>
  <ellipse cx="971" cy="138" rx="9" ry="4.5" transform="rotate(30 971 138)" fill="#7fae7f"/>
  <ellipse cx="989" cy="218" rx="9" ry="4.5" transform="rotate(-30 989 218)" fill="#7fae7f"/>
  <ellipse cx="971" cy="298" rx="9" ry="4.5" transform="rotate(30 971 298)" fill="#7fae7f"/>
  <path d="M 1330 40 C 1344 132, 1318 201, 1334 270" fill="none" stroke="#7fae7f" stroke-width="4" stroke-linecap="round"/>
  <ellipse cx="1321" cy="126" rx="9" ry="4.5" transform="rotate(30 1321 126)" fill="#7fae7f"/>
  <ellipse cx="1339" cy="186" rx="9" ry="4.5" transform="rotate(-30 1339 186)" fill="#7fae7f"/>
  <ellipse cx="1321" cy="246" rx="9" ry="4.5" transform="rotate(30 1321 246)" fill="#7fae7f"/>
  <path d="M 1700 40 C 1714 108, 1688 159, 1704 210" fill="none" stroke="#7fae7f" stroke-width="4" stroke-linecap="round"/>
  <ellipse cx="1691" cy="114" rx="9" ry="4.5" transform="rotate(30 1691 114)" fill="#7fae7f"/>
  <ellipse cx="1709" cy="154" rx="9" ry="4.5" transform="rotate(-30 1709 154)" fill="#7fae7f"/>
  <ellipse cx="1691" cy="194" rx="9" ry="4.5" transform="rotate(30 1691 194)" fill="#7fae7f"/>
  <!-- The canopy overhead, dark leaves hanging over the top of the Scene. -->
  <path d="M -20 -20 L -20 60 C -20 124.8, 56.4 124.8, 56.4 59.7 C 56.4 134.9, 135.4 134.9, 135.4 60.2 C 135.4 98.4, 229.2 98.4, 229.2 57.9 C 229.2 127.9, 327 127.9, 327 55.7 C 327 128.9, 406.9 128.9, 406.9 63.8 C 406.9 117.4, 519.5 117.4, 519.5 57.3 C 519.5 133.6, 612.9 133.6, 612.9 57.9 C 612.9 106.4, 688.8 106.4, 688.8 66.8 C 688.8 117.7, 779.9 117.7, 779.9 59.8 C 779.9 122.7, 857.4 122.7, 857.4 55.8 C 857.4 142.1, 965.2 142.1, 965.2 66.3 C 965.2 139.9, 1071.7 139.9, 1071.7 63.7 C 1071.7 127.6, 1146 127.6, 1146 55.2 C 1146 141, 1261.1 141, 1261.1 57.8 C 1261.1 140.2, 1352.1 140.2, 1352.1 58.2 C 1352.1 114.7, 1421.5 114.7, 1421.5 67.9 C 1421.5 125.7, 1514.7 125.7, 1514.7 64 C 1514.7 121.6, 1594.1 121.6, 1594.1 62 C 1594.1 104.3, 1671.3 104.3, 1671.3 66.8 C 1671.3 114.5, 1757 114.5, 1757 53.7 C 1757 129.9, 1828.3 129.9, 1828.3 58 C 1828.3 148.6, 1931.2 148.6, 1931.2 67.3 C 1931.2 150.4, 2019.9 150.4, 2019.9 61.4 L 2019.9 -20 Z" fill="#4f9468"/>
  <path d="M -20 -20 L -20 30 C -20 69.4, 80.3 69.4, 80.3 38 C 80.3 75.7, 149 75.7, 149 27.5 C 149 98.5, 246.5 98.5, 246.5 27.1 C 246.5 99.6, 332.2 99.6, 332.2 36.8 C 332.2 89.3, 422.3 89.3, 422.3 31.4 C 422.3 84.9, 496.2 84.9, 496.2 31.3 C 496.2 112.1, 595.7 112.1, 595.7 31.1 C 595.7 82.3, 685.4 82.3, 685.4 37.3 C 685.4 98.3, 759.3 98.3, 759.3 32.4 C 759.3 86.7, 826.3 86.7, 826.3 25 C 826.3 61.2, 889.5 61.2, 889.5 36.8 C 889.5 81.1, 971.4 81.1, 971.4 32.6 C 971.4 83.1, 1070 83.1, 1070 31.3 C 1070 82.5, 1143.3 82.5, 1143.3 28.9 C 1143.3 75, 1232 75, 1232 37.9 C 1232 76.5, 1307.7 76.5, 1307.7 36.9 C 1307.7 89.4, 1407.7 89.4, 1407.7 23.5 C 1407.7 84.8, 1505.5 84.8, 1505.5 27.6 C 1505.5 68.3, 1580.1 68.3, 1580.1 22.6 C 1580.1 94.3, 1663.1 94.3, 1663.1 25.2 C 1663.1 75, 1752.6 75, 1752.6 35.2 C 1752.6 101, 1851.4 101, 1851.4 30 C 1851.4 100.2, 1934 100.2, 1934 33.9 C 1934 91.5, 2014.5 91.5, 2014.5 27.7 L 2014.5 -20 Z" fill="#3a7a55"/>
  <path d="M -20 -20 L -20 4 C -20 69.3, 62.4 69.3, 62.4 -2.7 C 62.4 46.8, 133.6 46.8, 133.6 -1.9 C 133.6 34.7, 191.1 34.7, 191.1 3.3 C 191.1 37.5, 242.9 37.5, 242.9 2.7 C 242.9 47.2, 311.4 47.2, 311.4 -3.1 C 311.4 55.3, 389 55.3, 389 5.9 C 389 56, 473 56, 473 1.9 C 473 46.1, 543.5 46.1, 543.5 -2.6 C 543.5 50.8, 610.6 50.8, 610.6 3.2 C 610.6 36.4, 683.4 36.4, 683.4 1.2 C 683.4 37.7, 762.2 37.7, 762.2 -2.4 C 762.2 37.3, 814.5 37.3, 814.5 9.1 C 814.5 37.2, 876.7 37.2, 876.7 0.9 C 876.7 46.5, 954.2 46.5, 954.2 -2.3 C 954.2 60.9, 1031.8 60.9, 1031.8 -0.2 C 1031.8 55.4, 1101.4 55.4, 1101.4 11.1 C 1101.4 38.1, 1158 38.1, 1158 2.7 C 1158 45.9, 1209.8 45.9, 1209.8 11.6 C 1209.8 59.9, 1288.2 59.9, 1288.2 11.8 C 1288.2 56.7, 1364.7 56.7, 1364.7 2 C 1364.7 34.7, 1422.2 34.7, 1422.2 -0.9 C 1422.2 56, 1505 56, 1505 -2.3 C 1505 42, 1574 42, 1574 9 C 1574 49, 1633.6 49, 1633.6 3.1 C 1633.6 55.5, 1696.2 55.5, 1696.2 10.3 C 1696.2 51.3, 1770.6 51.3, 1770.6 9.3 C 1770.6 39.7, 1843.4 39.7, 1843.4 2.6 C 1843.4 52.4, 1920.6 52.4, 1920.6 9.2 C 1920.6 38.1, 1975.3 38.1, 1975.3 4.9 L 1975.3 -20 Z" fill="#2f6b4f"/>
  <!-- Clumps of leaves hanging lower here and there. -->
  <ellipse cx="250" cy="118" rx="59.800000000000004" ry="46" fill="#4f9468"/>
  <ellipse cx="208.6" cy="101.9" rx="41.4" ry="32.199999999999996" fill="#4f9468"/>
  <ellipse cx="296" cy="104.2" rx="39.1" ry="30.360000000000003" fill="#4f9468"/>
  <ellipse cx="240.8" cy="124.9" rx="36.800000000000004" ry="25.3" fill="#ffffff" opacity="0.07"/>
  <ellipse cx="520" cy="132" rx="52.0" ry="40" fill="#3a7a55"/>
  <ellipse cx="484.0" cy="118.0" rx="36.0" ry="28.0" fill="#3a7a55"/>
  <ellipse cx="560" cy="120.0" rx="34.0" ry="26.400000000000002" fill="#3a7a55"/>
  <ellipse cx="512.0" cy="138.0" rx="32.0" ry="22.0" fill="#ffffff" opacity="0.07"/>
  <ellipse cx="760" cy="112" rx="44.2" ry="34" fill="#4f9468"/>
  <ellipse cx="729.4" cy="100.1" rx="30.6" ry="23.799999999999997" fill="#4f9468"/>
  <ellipse cx="794" cy="101.8" rx="28.9" ry="22.44" fill="#4f9468"/>
  <ellipse cx="753.2" cy="117.1" rx="27.200000000000003" ry="18.700000000000003" fill="#ffffff" opacity="0.07"/>
  <ellipse cx="1450" cy="126" rx="57.2" ry="44" fill="#3a7a55"/>
  <ellipse cx="1410.4" cy="110.6" rx="39.6" ry="30.799999999999997" fill="#3a7a55"/>
  <ellipse cx="1494" cy="112.8" rx="37.4" ry="29.040000000000003" fill="#3a7a55"/>
  <ellipse cx="1441.2" cy="132.6" rx="35.2" ry="24.200000000000003" fill="#ffffff" opacity="0.07"/>
  <ellipse cx="1640" cy="110" rx="46.800000000000004" ry="36" fill="#4f9468"/>
  <ellipse cx="1607.6" cy="97.4" rx="32.4" ry="25.2" fill="#4f9468"/>
  <ellipse cx="1676" cy="99.2" rx="30.599999999999998" ry="23.76" fill="#4f9468"/>
  <ellipse cx="1632.8" cy="115.4" rx="28.8" ry="19.8" fill="#ffffff" opacity="0.07"/>
  <!-- Leaves massing round the tops of the two trees. -->
  <circle cx="83.4" cy="120.8" r="51.8" fill="#3a7a55"/>
  <circle cx="63.3" cy="107.8" r="43.4" fill="#2f6b4f"/>
  <circle cx="80.4" cy="192.3" r="44.4" fill="#4f9468"/>
  <circle cx="65.3" cy="56.5" r="44.1" fill="#3a7a55"/>
  <circle cx="17.6" cy="110.4" r="52.4" fill="#2f6b4f"/>
  <circle cx="81.2" cy="119.8" r="40.6" fill="#4f9468"/>
  <circle cx="114.9" cy="105.7" r="46" fill="#3a7a55"/>
  <circle cx="48.8" cy="150.7" r="68.7" fill="#2f6b4f"/>
  <circle cx="76.4" cy="140.2" r="57.5" fill="#4f9468"/>
  <circle cx="-39.4" cy="93.1" r="65.2" fill="#3a7a55"/>
  <circle cx="54.9" cy="135.4" r="65.1" fill="#2f6b4f"/>
  <circle cx="73.6" cy="119.8" r="62.1" fill="#4f9468"/>
  <circle cx="122.9" cy="74" r="46.6" fill="#3a7a55"/>
  <circle cx="95.3" cy="52.9" r="45.8" fill="#2f6b4f"/>
  <circle cx="43.2" cy="235.6" r="42.1" fill="#2f6b4f"/>
  <circle cx="58.1" cy="213.7" r="50.4" fill="#3a7a55"/>
  <circle cx="58.8" cy="246.8" r="52.9" fill="#2f6b4f"/>
  <circle cx="-35.5" cy="222.4" r="53.6" fill="#3a7a55"/>
  <circle cx="30" cy="230" r="51.1" fill="#2f6b4f"/>
  <circle cx="30.5" cy="230.4" r="50.6" fill="#3a7a55"/>
  <circle cx="1797.1" cy="76.2" r="61.2" fill="#3a7a55"/>
  <circle cx="1847.8" cy="156.5" r="63.2" fill="#2f6b4f"/>
  <circle cx="1877.2" cy="91.1" r="56.9" fill="#4f9468"/>
  <circle cx="1819" cy="70.3" r="65.1" fill="#3a7a55"/>
  <circle cx="1811.8" cy="93.1" r="64.5" fill="#2f6b4f"/>
  <circle cx="1838.2" cy="80" r="48" fill="#4f9468"/>
  <circle cx="1854.2" cy="100.1" r="55.8" fill="#3a7a55"/>
  <circle cx="1855.8" cy="62.6" r="62" fill="#2f6b4f"/>
  <circle cx="1915" cy="78.6" r="57.7" fill="#4f9468"/>
  <circle cx="1864.6" cy="103.3" r="65.5" fill="#3a7a55"/>
  <circle cx="1855" cy="118.3" r="63.3" fill="#2f6b4f"/>
  <circle cx="1860" cy="89.2" r="48.4" fill="#4f9468"/>
  <circle cx="1865.4" cy="194.9" r="47.5" fill="#2f6b4f"/>
  <circle cx="1942.6" cy="174.8" r="39.8" fill="#3a7a55"/>
  <circle cx="1924.1" cy="193.6" r="38.9" fill="#2f6b4f"/>
  <circle cx="1925.4" cy="213.7" r="36.5" fill="#3a7a55"/>
  <circle cx="1894.4" cy="229" r="46.4" fill="#2f6b4f"/>
</svg>
