<svg xmlns="http://www.w3.org/2000/svg" viewBox="0 26 152 75">
  <path d="M6 96 C 2 70, 18 44, 46 36 C 70 28, 104 30, 124 44 C 142 56, 150 78, 146 96 Z" fill="#8a9a86"/>
  <path d="M146 96 C 150 78, 142 56, 124 44 C 130 62, 128 82, 116 96 Z" fill="#2b2b3a" opacity="0.15"/>
  <path d="M18 52 C 30 36, 56 28, 84 30 C 106 31, 122 38, 130 48 C 118 46, 104 52, 92 48 C 78 44, 64 52, 50 50 C 38 48, 28 56, 18 52 Z" fill="#6f9a45"/>
  <path d="M6 96 C 4 86, 6 78, 10 72 C 14 82, 22 90, 34 96 Z" fill="#6f9a45"/>
  <ellipse cx="76" cy="96" rx="74" ry="5" fill="#2b2b3a" opacity="0.12"/>
</svg>
